<?xml version="1.0" standalone="no"?>
<!DOCTYPE svg PUBLIC "-//W3C//DTD SVG 20010904//EN"
 "http://www.w3.org/TR/2001/REC-SVG-20010904/DTD/svg10.dtd">
<svg version="1.0" xmlns="http://www.w3.org/2000/svg"
 width="1226.000000pt" height="354.000000pt" viewBox="0 0 1226.000000 354.000000"
 preserveAspectRatio="xMidYMid meet">

<g transform="translate(0.000000,354.000000) scale(0.100000,-0.100000)"
fill="#000000" stroke="none">
<path d="M965 3196 c-300 -50 -532 -218 -627 -455 l-23 -56 -3 -989 c-2 -642
1 -1008 8 -1045 5 -31 25 -87 44 -126 107 -216 344 -366 640 -406 205 -27 460
31 621 141 116 79 214 204 258 328 19 51 21 87 25 365 2 170 1 320 -2 333 l-6
24 -319 0 c-282 0 -320 -2 -325 -16 -3 -9 -6 -124 -6 -257 0 -260 -3 -273 -53
-311 -36 -26 -121 -27 -161 -1 -58 39 -56 -3 -56 935 0 929 -2 897 52 932 57
37 145 29 189 -18 24 -25 24 -27 29 -292 l5 -267 322 -3 323 -2 6 24 c3 13 4
163 1 333 -4 341 -6 350 -74 472 -40 72 -130 168 -208 221 -71 49 -208 106
-301 125 -106 22 -261 27 -359 11z"/>
<path d="M8297 3143 c-9 -8 -9 -2935 -1 -2957 5 -14 44 -16 329 -16 285 0 324
2 329 16 3 9 6 283 6 610 l0 594 233 2 232 3 3 264 c2 186 -1 268 -9 277 -9
11 -58 14 -235 14 l-224 0 2 333 3 332 310 5 310 5 0 260 0 260 -641 3 c-352
1 -644 -1 -647 -5z"/>
<path d="M9740 2885 l0 -265 313 2 312 3 0 260 0 260 -312 3 -313 2 0 -265z"/>
<path d="M10795 2738 c-3 -7 -6 -92 -7 -188 l-3 -175 -130 -5 -130 -5 0 -220
0 -220 130 -5 130 -5 5 -650 5 -650 23 -58 c80 -198 222 -320 427 -367 77 -18
117 -20 280 -18 l190 3 3 244 c2 189 -1 246 -10 253 -7 4 -53 8 -101 8 -58 0
-100 5 -121 15 -63 30 -61 4 -64 629 -2 412 0 572 9 582 8 10 49 14 163 16
l151 3 0 220 0 220 -155 3 c-108 2 -156 6 -162 15 -4 6 -8 92 -8 190 l0 177
-310 0 c-239 0 -312 -3 -315 -12z"/>
<path d="M2095 2398 c-3 -7 -4 -510 -3 -1118 l3 -1105 313 -3 312 -2 0 672 c0
712 1 722 48 813 29 57 112 131 185 165 57 27 93 35 232 57 l50 8 3 240 c1
132 0 250 -3 263 -5 19 -12 22 -49 22 -58 0 -179 -24 -236 -46 -61 -24 -122
-66 -175 -122 -24 -25 -47 -44 -49 -41 -3 3 -13 48 -22 99 -9 52 -18 98 -21
103 -2 4 -135 7 -294 7 -222 0 -291 -3 -294 -12z"/>
<path d="M3939 2395 c-154 -26 -283 -78 -387 -157 -71 -53 -146 -157 -172
-238 -20 -64 -21 -79 -18 -750 l3 -685 31 -65 c45 -93 104 -162 189 -219 276
-184 725 -199 1025 -33 84 46 198 160 233 233 15 31 32 81 38 112 6 36 9 292
7 714 l-3 658 -26 58 c-34 77 -90 152 -153 205 -52 44 -173 108 -259 136 -130
43 -355 57 -508 31z m290 -499 l26 -26 3 -573 c2 -397 0 -584 -8 -610 -15 -52
-58 -77 -132 -77 -46 0 -62 5 -87 26 l-31 26 0 607 0 608 25 23 c48 45 157 43
204 -4z"/>
<path d="M5580 2395 c-355 -61 -535 -282 -517 -635 15 -300 122 -442 472 -624
253 -132 347 -206 373 -293 30 -101 3 -208 -60 -234 -68 -28 -165 -7 -198 43
-10 16 -16 61 -20 138 l-5 115 -285 0 -285 0 0 -165 c0 -149 2 -171 24 -230
58 -159 195 -279 381 -334 258 -77 587 -51 779 61 218 128 316 367 267 649
-27 151 -90 270 -206 384 -85 85 -174 143 -384 252 -181 94 -219 122 -242 177
-32 76 -9 191 44 220 46 24 144 17 179 -13 27 -23 28 -29 33 -138 l5 -113 282
-3 283 -2 6 26 c4 15 4 86 1 158 -5 132 -23 207 -65 276 -121 196 -358 302
-672 299 -63 -1 -149 -7 -190 -14z"/>
<path d="M7240 2403 c-245 -39 -390 -115 -483 -256 -47 -71 -72 -145 -88 -255
-22 -159 16 -351 93 -467 78 -118 161 -178 438 -320 41 -22 111 -63 156 -92
124 -80 164 -144 164 -261 0 -55 -5 -76 -22 -102 -57 -83 -199 -72 -254 20 -5
8 -11 65 -14 125 l-5 110 -282 3 -282 2 -7 -37 c-4 -20 -4 -95 -1 -168 4 -115
9 -141 36 -211 52 -135 166 -241 319 -297 227 -84 490 -89 712 -14 107 36 166
72 240 147 109 109 160 241 160 417 0 213 -64 370 -214 518 -97 96 -173 148
-368 247 -80 42 -166 90 -191 106 -75 52 -105 151 -72 237 21 56 59 78 133 78
99 0 130 -47 131 -196 l1 -87 283 2 282 3 3 124 c3 151 -8 215 -53 307 -59
122 -188 224 -346 277 -111 38 -355 58 -469 40z"/>
<path d="M9740 1270 l0 -1100 313 2 312 3 0 1095 0 1095 -312 3 -313 2 0
-1100z"/>
<path d="M11923 2260 c-89 -54 -82 -203 12 -242 41 -17 104 -12 135 10 32 23
60 78 60 117 0 101 -120 168 -207 115z m115 -30 c62 -38 69 -105 17 -157 -32
-32 -40 -35 -73 -30 -52 9 -82 46 -82 102 0 38 5 47 37 74 44 36 57 38 101 11z"/>
<path d="M11944 2196 c-3 -7 -4 -35 -2 -62 2 -37 7 -50 21 -52 10 -2 17 3 17
12 0 22 17 20 30 -4 6 -11 14 -20 19 -20 12 0 20 102 10 123 -12 21 -87 24
-95 3z m56 -32 c0 -8 -4 -12 -10 -9 -5 3 -10 10 -10 16 0 5 5 9 10 9 6 0 10
-7 10 -16z"/>
</g>
</svg>
